# Blender 5.1.0
# www.blender.org
mtllib rover7.mtl
o Body
v 0.000000 0.070625 0.000349
v 0.000000 0.154922 0.000349
v 0.000000 0.070625 0.000349
v 0.000000 0.154922 0.000349
v 0.000000 0.070625 0.000349
v 0.000000 0.154922 0.000349
v 0.000000 0.070625 0.000349
v 0.000000 0.154922 0.000349
v -0.154141 0.070625 0.000349
v -0.154141 0.154922 0.000349
v -0.154141 0.070625 0.000349
v -0.154141 0.154922 0.000349
v -0.154141 0.070625 0.000349
v -0.154141 0.154922 0.000349
v -0.154141 0.070625 0.000349
v -0.154141 0.154922 0.000349
v 0.000000 0.070625 -0.000349
v 0.000000 0.154922 -0.000349
v 0.000000 0.070625 0.190182
v 0.000000 0.154922 0.190182
v 0.000000 0.070625 -0.000349
v 0.000000 0.154922 -0.000349
v 0.000000 0.070625 0.190182
v 0.000000 0.154922 0.190182
v 0.000000 0.070625 0.190182
v 0.000000 0.154922 0.190182
v 0.000000 0.070625 -0.000349
v 0.000000 0.154922 -0.000349
v 0.000000 0.070625 0.190182
v 0.000000 0.154922 0.190182
v 0.000000 0.070625 -0.000349
v 0.000000 0.154922 -0.000349
v -0.154141 0.070625 -0.000349
v -0.154141 0.154922 -0.000349
v -0.154141 0.070625 0.190182
v -0.154141 0.154922 0.190182
v -0.154141 0.070625 -0.000349
v -0.154141 0.154922 -0.000349
v -0.154141 0.070625 0.190182
v -0.154141 0.154922 0.190182
v -0.154141 0.070625 0.190182
v -0.154141 0.154922 0.190182
v -0.154141 0.070625 -0.000349
v -0.154141 0.154922 -0.000349
v -0.154141 0.070625 0.190182
v -0.154141 0.154922 0.190182
v -0.154141 0.070625 -0.000349
v -0.154141 0.154922 -0.000349
vn -0.0000 -0.0000 1.0000
vn -1.0000 -0.0000 -0.0000
vn -0.0000 -0.0000 -1.0000
vn -0.0000 -1.0000 -0.0000
vn -0.0000 1.0000 -0.0000
vt 0.375000 1.000000
vt 0.625000 0.750000
vt 0.375000 0.750000
vt 0.625000 0.250000
vt 0.375000 0.500000
vt 0.375000 0.250000
vt 0.625000 0.000000
vt 0.375000 0.000000
vt 0.625000 0.500000
vt 0.125000 0.750000
vt 0.125000 0.500000
vt 0.875000 0.500000
vt 0.625000 1.000000
vt 0.875000 0.750000
s 0
usemtl Body_Dark.005
f 1/1/1 10/2/1 9/3/1
f 4/2/1 11/1/1 3/3/1
f 6/4/1 13/5/1 5/6/1
f 7/5/1 16/4/1 15/6/1
f 19/6/2 18/7/2 17/8/2
f 24/9/2 21/3/2 23/5/2
f 26/7/2 27/6/2 25/8/2
f 29/3/2 32/9/2 31/5/2
f 20/4/1 35/5/1 19/6/1
f 36/9/2 33/3/2 35/5/2
f 34/2/3 17/1/3 33/3/3
f 35/5/4 17/10/4 19/11/4
f 20/12/5 34/2/5 36/9/5
f 39/6/2 38/7/2 37/8/2
f 23/5/1 40/4/1 39/6/1
f 37/1/3 22/2/3 21/3/3
f 37/10/4 23/5/4 39/11/4
f 22/2/5 40/12/5 24/9/5
f 43/5/3 28/4/3 27/6/3
f 41/3/2 44/9/2 43/5/2
f 25/1/1 42/2/1 41/3/1
f 25/10/4 43/5/4 27/11/4
f 42/2/5 28/12/5 44/9/5
f 46/7/2 47/6/2 45/8/2
f 48/4/3 31/5/3 47/6/3
f 30/2/1 45/1/1 29/3/1
f 31/5/4 45/10/4 47/11/4
f 48/12/5 30/2/5 32/9/5
f 1/1/1 2/13/1 10/2/1
f 4/2/1 12/13/1 11/1/1
f 6/4/1 14/9/1 13/5/1
f 7/5/1 8/9/1 16/4/1
f 19/6/2 20/4/2 18/7/2
f 24/9/2 22/2/2 21/3/2
f 26/7/2 28/4/2 27/6/2
f 29/3/2 30/2/2 32/9/2
f 20/4/1 36/9/1 35/5/1
f 36/9/2 34/2/2 33/3/2
f 34/2/3 18/13/3 17/1/3
f 35/5/4 33/3/4 17/10/4
f 20/12/5 18/14/5 34/2/5
f 39/6/2 40/4/2 38/7/2
f 23/5/1 24/9/1 40/4/1
f 37/1/3 38/13/3 22/2/3
f 37/10/4 21/3/4 23/5/4
f 22/2/5 38/14/5 40/12/5
f 43/5/3 44/9/3 28/4/3
f 41/3/2 42/2/2 44/9/2
f 25/1/1 26/13/1 42/2/1
f 25/10/4 41/3/4 43/5/4
f 42/2/5 26/14/5 28/12/5
f 46/7/2 48/4/2 47/6/2
f 48/4/3 32/9/3 31/5/3
f 30/2/1 46/13/1 45/1/1
f 31/5/4 29/3/4 45/10/4
f 48/12/5 46/14/5 30/2/5
o Body_Top
v 0.000000 0.154621 0.000190
v 0.000000 0.186871 0.000190
v 0.000000 0.154621 0.000190
v 0.000000 0.186871 0.000190
v 0.000000 0.154621 0.000190
v 0.000000 0.186871 0.000190
v 0.000000 0.154621 0.000190
v 0.000000 0.186871 0.000190
v -0.093391 0.154621 0.000190
v -0.093391 0.186871 0.000190
v -0.093391 0.154621 0.000190
v -0.093391 0.186871 0.000190
v -0.093391 0.154621 0.000190
v -0.093391 0.186871 0.000190
v -0.093391 0.154621 0.000190
v -0.093391 0.186871 0.000190
v 0.000000 0.154621 -0.000190
v 0.000000 0.186871 -0.000190
v 0.000000 0.154621 0.103383
v 0.000000 0.186871 0.103383
v 0.000000 0.154621 -0.000190
v 0.000000 0.186871 -0.000190
v 0.000000 0.154621 0.103383
v 0.000000 0.186871 0.103383
v 0.000000 0.154621 0.103383
v 0.000000 0.186871 0.103383
v 0.000000 0.154621 -0.000190
v 0.000000 0.186871 -0.000190
v 0.000000 0.154621 0.103383
v 0.000000 0.186871 0.103383
v 0.000000 0.154621 -0.000190
v 0.000000 0.186871 -0.000190
v -0.093391 0.154621 -0.000190
v -0.093391 0.186871 -0.000190
v -0.093391 0.154621 0.103383
v -0.093391 0.186871 0.103383
v -0.093391 0.154621 -0.000190
v -0.093391 0.186871 -0.000190
v -0.093391 0.154621 0.103383
v -0.093391 0.186871 0.103383
v -0.093391 0.154621 0.103383
v -0.093391 0.186871 0.103383
v -0.093391 0.154621 -0.000190
v -0.093391 0.186871 -0.000190
v -0.093391 0.154621 0.103383
v -0.093391 0.186871 0.103383
v -0.093391 0.154621 -0.000190
v -0.093391 0.186871 -0.000190
vn -0.0000 -0.0000 1.0000
vn -1.0000 -0.0000 -0.0000
vn -0.0000 -0.0000 -1.0000
vn -0.0000 -1.0000 -0.0000
vn -0.0000 1.0000 -0.0000
vt 0.375000 1.000000
vt 0.625000 0.750000
vt 0.375000 0.750000
vt 0.625000 0.250000
vt 0.375000 0.500000
vt 0.375000 0.250000
vt 0.625000 0.000000
vt 0.375000 0.000000
vt 0.625000 0.500000
vt 0.125000 0.750000
vt 0.125000 0.500000
vt 0.875000 0.500000
vt 0.625000 1.000000
vt 0.875000 0.750000
s 0
usemtl Body_Mid.005
f 49/15/6 58/16/6 57/17/6
f 52/16/6 59/15/6 51/17/6
f 54/18/6 61/19/6 53/20/6
f 55/19/6 64/18/6 63/20/6
f 67/20/7 66/21/7 65/22/7
f 72/23/7 69/17/7 71/19/7
f 74/21/7 75/20/7 73/22/7
f 77/17/7 80/23/7 79/19/7
f 68/18/6 83/19/6 67/20/6
f 84/23/7 81/17/7 83/19/7
f 82/16/8 65/15/8 81/17/8
f 83/19/9 65/24/9 67/25/9
f 68/26/10 82/16/10 84/23/10
f 87/20/7 86/21/7 85/22/7
f 71/19/6 88/18/6 87/20/6
f 85/15/8 70/16/8 69/17/8
f 85/24/9 71/19/9 87/25/9
f 70/16/10 88/26/10 72/23/10
f 91/19/8 76/18/8 75/20/8
f 89/17/7 92/23/7 91/19/7
f 73/15/6 90/16/6 89/17/6
f 73/24/9 91/19/9 75/25/9
f 90/16/10 76/26/10 92/23/10
f 94/21/7 95/20/7 93/22/7
f 96/18/8 79/19/8 95/20/8
f 78/16/6 93/15/6 77/17/6
f 79/19/9 93/24/9 95/25/9
f 96/26/10 78/16/10 80/23/10
f 49/15/6 50/27/6 58/16/6
f 52/16/6 60/27/6 59/15/6
f 54/18/6 62/23/6 61/19/6
f 55/19/6 56/23/6 64/18/6
f 67/20/7 68/18/7 66/21/7
f 72/23/7 70/16/7 69/17/7
f 74/21/7 76/18/7 75/20/7
f 77/17/7 78/16/7 80/23/7
f 68/18/6 84/23/6 83/19/6
f 84/23/7 82/16/7 81/17/7
f 82/16/8 66/27/8 65/15/8
f 83/19/9 81/17/9 65/24/9
f 68/26/10 66/28/10 82/16/10
f 87/20/7 88/18/7 86/21/7
f 71/19/6 72/23/6 88/18/6
f 85/15/8 86/27/8 70/16/8
f 85/24/9 69/17/9 71/19/9
f 70/16/10 86/28/10 88/26/10
f 91/19/8 92/23/8 76/18/8
f 89/17/7 90/16/7 92/23/7
f 73/15/6 74/27/6 90/16/6
f 73/24/9 89/17/9 91/19/9
f 90/16/10 74/28/10 76/26/10
f 94/21/7 96/18/7 95/20/7
f 96/18/8 80/23/8 79/19/8
f 78/16/6 94/27/6 93/15/6
f 79/19/9 77/17/9 93/24/9
f 96/26/10 94/28/10 78/16/10
o Plane
v -0.168058 0.103683 0.180913
v -0.168058 0.024193 0.180913
v -0.168058 0.103683 0.101424
v -0.168058 0.024193 0.101424
vn 1.0000 -0.0000 -0.0000
vt 1.000000 0.000000
vt 0.000000 1.000000
vt 0.000000 0.000000
vt 1.000000 1.000000
s 0
usemtl Motor_Dark.004
f 98/29/11 99/30/11 97/31/11
f 98/29/11 100/32/11 99/30/11
o Antenna
v 0.000000 0.182097 0.003698
v 0.000000 0.249109 0.003698
v -0.002615 0.182097 0.002615
v -0.002615 0.249109 0.002615
v -0.003698 0.182097 0.000000
v -0.003698 0.249109 0.000000
v -0.003698 0.182097 0.000000
v -0.003698 0.249109 0.000000
v -0.002615 0.182097 0.002615
v -0.002615 0.249109 0.002615
v 0.000000 0.182097 0.003698
v 0.000000 0.249109 0.003698
v -0.002615 0.182097 0.002615
v -0.002615 0.249109 0.002615
v -0.002615 0.182097 0.002615
v -0.002615 0.249109 0.002615
vn -0.3827 -0.0000 0.9239
vn -0.9239 -0.0000 0.3827
vt 0.500000 1.000000
vt 0.375000 0.500000
vt 0.500000 0.500000
vt 0.375000 1.000000
vt 0.250000 0.500000
vt 0.625000 0.500000
vt 0.750000 1.000000
vt 0.750000 0.500000
vt 0.625000 1.000000
vt 0.125000 0.500000
vt 0.250000 1.000000
vt 0.000000 0.500000
vt 0.125000 1.000000
vt 1.000000 1.000000
vt 0.875000 0.500000
vt 1.000000 0.500000
vt 0.875000 1.000000
vt 0.000000 1.000000
s 0
usemtl Body_Dark.006
f 102/33/12 103/34/12 101/35/12
f 104/36/13 105/37/13 103/34/13
f 109/38/13 108/39/13 107/40/13
f 101/35/12 110/41/12 109/38/12
f 113/42/13 106/43/13 105/37/13
f 111/44/12 114/45/12 113/42/12
f 112/46/12 115/47/12 111/48/12
f 116/49/13 107/40/13 115/47/13
f 102/33/12 104/36/12 103/34/12
f 104/36/13 106/43/13 105/37/13
f 109/38/13 110/41/13 108/39/13
f 101/35/12 102/33/12 110/41/12
f 113/42/13 114/45/13 106/43/13
f 111/44/12 112/50/12 114/45/12
f 112/46/12 116/49/12 115/47/12
f 116/49/13 108/39/13 107/40/13
o Plane.001
v -0.168394 0.026654 0.179819
v -0.168481 0.104972 0.179819
v -0.168394 0.026654 0.101500
v -0.168481 0.104972 0.101500
vn -1.0000 -0.0011 -0.0000
vt 1.000000 0.000000
vt 0.000000 1.000000
vt 0.000000 0.000000
vt 1.000000 1.000000
s 0
usemtl Motor_Dark.004
f 118/51/14 119/52/14 117/53/14
f 118/51/14 120/54/14 119/52/14
o Wheel
v -0.166323 0.124160 0.141682
v -0.175006 0.120564 0.141682
v -0.178602 0.111881 0.141682
v -0.175006 0.103198 0.141682
v -0.166323 0.099602 0.141682
v -0.157640 0.103198 0.141682
v -0.154043 0.111881 0.141682
v -0.157640 0.120564 0.141682
v -0.166323 0.115935 0.172381
v -0.175006 0.112820 0.170583
v -0.178602 0.105300 0.166241
v -0.175006 0.097781 0.161900
v -0.166323 0.094666 0.160102
v -0.157640 0.097781 0.161900
v -0.154043 0.105300 0.166241
v -0.157640 0.112820 0.170583
v -0.166323 0.093462 0.194854
v -0.175006 0.091664 0.191739
v -0.178602 0.087322 0.184220
v -0.175006 0.082981 0.176700
v -0.166323 0.081182 0.173585
v -0.157640 0.082981 0.176700
v -0.154043 0.087322 0.184220
v -0.157640 0.091664 0.191739
v -0.166323 0.062763 0.203079
v -0.175006 0.062763 0.199483
v -0.178602 0.062763 0.190800
v -0.175006 0.062763 0.182117
v -0.166323 0.062763 0.178521
v -0.157640 0.062763 0.182117
v -0.154043 0.062763 0.190800
v -0.157640 0.062763 0.199483
v -0.166323 0.032065 0.194854
v -0.175006 0.033863 0.191739
v -0.178602 0.038205 0.184220
v -0.175006 0.042546 0.176700
v -0.166323 0.044344 0.173585
v -0.157640 0.042546 0.176700
v -0.154043 0.038205 0.184220
v -0.157640 0.033863 0.191739
v -0.166323 0.009592 0.172381
v -0.175006 0.012707 0.170583
v -0.178602 0.020226 0.166241
v -0.175006 0.027746 0.161900
v -0.166323 0.030861 0.160102
v -0.157640 0.027746 0.161900
v -0.154043 0.020226 0.166241
v -0.157640 0.012707 0.170583
v -0.166323 0.001366 0.141682
v -0.175006 0.004963 0.141682
v -0.178602 0.013646 0.141682
v -0.175006 0.022329 0.141682
v -0.166323 0.025925 0.141682
v -0.157640 0.022329 0.141682
v -0.154043 0.013646 0.141682
v -0.157640 0.004963 0.141682
v -0.166323 0.009592 0.110984
v -0.175006 0.012707 0.112782
v -0.178602 0.020226 0.117124
v -0.175006 0.027746 0.121465
v -0.166323 0.030861 0.123263
v -0.157640 0.027746 0.121465
v -0.154043 0.020226 0.117124
v -0.157640 0.012707 0.112782
v -0.166323 0.032065 0.088511
v -0.175006 0.033863 0.091626
v -0.178602 0.038205 0.099145
v -0.175006 0.042546 0.106665
v -0.166323 0.044344 0.109780
v -0.157640 0.042546 0.106665
v -0.154043 0.038205 0.099145
v -0.157640 0.033863 0.091626
v -0.166323 0.062763 0.080285
v -0.175006 0.062763 0.083882
v -0.178602 0.062763 0.092565
v -0.175006 0.062763 0.101248
v -0.166323 0.062763 0.104844
v -0.157640 0.062763 0.101248
v -0.154043 0.062763 0.092565
v -0.157640 0.062763 0.083882
v -0.166323 0.093462 0.088511
v -0.175006 0.091664 0.091626
v -0.178602 0.087322 0.099145
v -0.175006 0.082981 0.106665
v -0.166323 0.081182 0.109780
v -0.157640 0.082981 0.106665
v -0.154043 0.087322 0.099145
v -0.157640 0.091664 0.091626
v -0.166323 0.115935 0.110984
v -0.175006 0.112820 0.112782
v -0.178602 0.105300 0.117124
v -0.175006 0.097781 0.121465
v -0.166323 0.094666 0.123263
v -0.157640 0.097781 0.121465
v -0.154043 0.105300 0.117124
v -0.157640 0.112820 0.112782
vn -0.3715 0.8968 0.2403
vn -0.9191 0.3807 0.1020
vn -0.9191 -0.3807 -0.1020
vn -0.3715 -0.8968 -0.2403
vn 0.3715 -0.8968 -0.2403
vn 0.9191 -0.3807 -0.1020
vn 0.9191 0.3807 0.1020
vn 0.3715 0.8968 0.2403
vn -0.3715 0.6565 0.6565
vn -0.9191 0.2787 0.2787
vn -0.9191 -0.2787 -0.2787
vn -0.3715 -0.6565 -0.6565
vn 0.3715 -0.6565 -0.6565
vn 0.9191 -0.2787 -0.2787
vn 0.9191 0.2787 0.2787
vn 0.3715 0.6565 0.6565
vn -0.3715 0.2403 0.8968
vn -0.9191 0.1020 0.3807
vn -0.9191 -0.1020 -0.3807
vn -0.3715 -0.2403 -0.8968
vn 0.3715 -0.2403 -0.8968
vn 0.9191 -0.1020 -0.3807
vn 0.9191 0.1020 0.3807
vn 0.3715 0.2403 0.8968
vn -0.3715 -0.2403 0.8968
vn -0.9191 -0.1020 0.3807
vn -0.9191 0.1020 -0.3807
vn -0.3715 0.2403 -0.8968
vn 0.3715 0.2403 -0.8968
vn 0.9191 0.1020 -0.3807
vn 0.9191 -0.1020 0.3807
vn 0.3715 -0.2403 0.8968
vn -0.3715 -0.6565 0.6565
vn -0.9191 -0.2787 0.2787
vn -0.9191 0.2787 -0.2787
vn -0.3715 0.6565 -0.6565
vn 0.3715 0.6565 -0.6565
vn 0.9191 0.2787 -0.2787
vn 0.9191 -0.2787 0.2787
vn 0.3715 -0.6565 0.6565
vn -0.3715 -0.8968 0.2403
vn -0.9191 -0.3807 0.1020
vn -0.9191 0.3807 -0.1020
vn -0.3715 0.8968 -0.2403
vn 0.3715 0.8968 -0.2403
vn 0.9191 0.3807 -0.1020
vn 0.9191 -0.3807 0.1020
vn 0.3715 -0.8968 0.2403
vt 0.500000 0.500000
vt 0.583333 0.625000
vt 0.500000 0.625000
vt 0.500000 0.750000
vt 0.583333 0.750000
vt 0.500000 0.875000
vt 0.583333 0.875000
vt 0.500000 1.000000
vt 0.583333 0.000000
vt 0.500000 0.125000
vt 0.500000 0.000000
vt 0.583333 0.125000
vt 0.500000 0.250000
vt 0.583333 0.250000
vt 0.500000 0.375000
vt 0.583333 0.500000
vt 0.666667 0.500000
vt 0.666667 0.625000
vt 0.666667 0.750000
vt 0.666667 0.875000
vt 0.583333 1.000000
vt 0.666667 0.000000
vt 0.666667 0.125000
vt 0.666667 0.250000
vt 0.583333 0.375000
vt 0.750000 0.500000
vt 0.750000 0.625000
vt 0.750000 0.750000
vt 0.750000 0.875000
vt 0.666667 1.000000
vt 0.750000 0.000000
vt 0.750000 0.125000
vt 0.750000 0.250000
vt 0.666667 0.375000
vt 0.750000 0.375000
vt 0.833333 0.625000
vt 0.833333 0.875000
vt 0.750000 1.000000
vt 0.833333 0.000000
vt 0.833333 0.125000
vt 0.833333 0.250000
vt 0.833333 0.375000
vt 0.833333 0.500000
vt 0.916667 0.625000
vt 0.916667 0.750000
vt 0.833333 0.750000
vt 0.916667 0.875000
vt 0.833333 1.000000
vt 0.916667 0.125000
vt 0.916667 0.250000
vt 0.916667 0.375000
vt 1.000000 0.500000
vt 0.916667 0.500000
vt 1.000000 0.625000
vt 1.000000 0.750000
vt 1.000000 1.000000
vt 0.916667 1.000000
vt 1.000000 0.000000
vt 0.916667 0.000000
vt 1.000000 0.125000
vt 1.000000 0.250000
vt 1.000000 0.375000
vt 0.083333 0.500000
vt 0.000000 0.625000
vt 0.000000 0.500000
vt 0.083333 0.625000
vt 0.000000 0.750000
vt 0.083333 0.750000
vt 0.000000 0.875000
vt 0.083333 0.875000
vt 0.000000 1.000000
vt 0.083333 0.000000
vt 0.000000 0.125000
vt 0.000000 0.000000
vt 0.083333 0.250000
vt 0.000000 0.250000
vt 0.000000 0.375000
vt 0.166667 0.500000
vt 0.166667 0.625000
vt 0.166667 0.750000
vt 0.166667 0.875000
vt 0.083333 1.000000
vt 0.166667 0.125000
vt 0.083333 0.125000
vt 0.166667 0.250000
vt 0.083333 0.375000
vt 0.250000 0.500000
vt 0.250000 0.625000
vt 0.250000 0.875000
vt 0.166667 1.000000
vt 0.166667 0.000000
vt 0.250000 0.125000
vt 0.250000 0.250000
vt 0.166667 0.375000
vt 0.250000 0.375000
vt 0.333333 0.625000
vt 0.250000 0.750000
vt 0.333333 0.750000
vt 0.333333 1.000000
vt 0.250000 1.000000
vt 0.333333 0.000000
vt 0.250000 0.000000
vt 0.333333 0.125000
vt 0.333333 0.250000
vt 0.333333 0.375000
vt 0.416667 0.500000
vt 0.333333 0.500000
vt 0.416667 0.625000
vt 0.416667 0.750000
vt 0.333333 0.875000
vt 0.416667 0.875000
vt 0.416667 0.000000
vt 0.416667 0.125000
vt 0.416667 0.375000
vt 0.416667 1.000000
vt 0.416667 0.250000
vt 1.000000 0.875000
s 0
usemtl Fore_Metal.004
f 121/55/15 122/57/15 130/56/15
f 130/56/16 122/57/16 123/58/16
f 131/59/17 123/58/17 124/60/17
f 132/61/18 124/60/18 125/62/18
f 133/63/19 125/65/19 126/64/19
f 134/66/20 126/64/20 127/67/20
f 135/68/21 127/67/21 128/69/21
f 128/69/22 121/55/22 129/70/22
f 137/71/23 129/70/23 130/56/23
f 138/72/24 130/56/24 131/59/24
f 139/73/25 131/59/25 132/61/25
f 140/74/26 132/61/26 133/75/26
f 141/76/27 133/63/27 134/66/27
f 142/77/28 134/66/28 135/68/28
f 143/78/29 135/68/29 136/79/29
f 136/79/30 129/70/30 137/71/30
f 145/80/31 137/71/31 138/72/31
f 146/81/32 138/72/32 139/73/32
f 147/82/33 139/73/33 140/74/33
f 148/83/34 140/74/34 141/84/34
f 149/85/35 141/76/35 142/77/35
f 150/86/36 142/77/36 143/78/36
f 151/87/37 143/78/37 144/88/37
f 152/89/38 144/88/38 137/71/38
f 145/80/39 146/81/39 154/90/39
f 154/90/40 146/81/40 147/82/40
f 147/82/41 148/83/41 156/91/41
f 156/91/42 148/83/42 149/92/42
f 157/93/43 149/85/43 150/86/43
f 158/94/44 150/86/44 151/87/44
f 159/95/45 151/87/45 152/89/45
f 160/96/46 152/89/46 145/80/46
f 153/97/47 154/90/47 162/98/47
f 154/90/48 155/100/48 163/99/48
f 163/99/49 155/100/49 156/91/49
f 164/101/50 156/91/50 157/102/50
f 157/93/51 158/94/51 166/103/51
f 166/103/52 158/94/52 159/95/52
f 167/104/53 159/95/53 160/96/53
f 168/105/54 160/96/54 153/97/54
f 169/106/55 161/107/55 162/98/55
f 170/108/56 162/98/56 163/99/56
f 171/109/57 163/99/57 164/101/57
f 164/101/58 165/111/58 173/110/58
f 173/112/59 165/113/59 166/103/59
f 174/114/60 166/103/60 167/104/60
f 175/115/61 167/104/61 168/105/61
f 176/116/62 168/105/62 161/107/62
f 177/117/18 169/119/18 170/118/18
f 178/120/17 170/118/17 171/121/17
f 179/122/16 171/121/16 172/123/16
f 180/124/15 172/123/15 173/125/15
f 181/126/22 173/128/22 174/127/22
f 174/127/21 175/130/21 183/129/21
f 183/129/20 175/130/20 176/131/20
f 176/131/19 169/119/19 177/117/19
f 185/132/26 177/117/26 178/120/26
f 186/133/25 178/120/25 179/122/25
f 187/134/24 179/122/24 180/124/24
f 188/135/23 180/124/23 181/136/23
f 181/126/30 182/138/30 190/137/30
f 190/137/29 182/138/29 183/129/29
f 191/139/28 183/129/28 184/140/28
f 184/140/27 177/117/27 185/132/27
f 193/141/34 185/132/34 186/133/34
f 194/142/33 186/133/33 187/134/33
f 187/134/32 188/135/32 196/143/32
f 196/143/31 188/135/31 189/144/31
f 189/145/38 190/137/38 198/146/38
f 198/146/37 190/137/37 191/139/37
f 199/147/36 191/139/36 192/148/36
f 200/149/35 192/148/35 185/132/35
f 193/141/42 194/142/42 202/150/42
f 202/150/41 194/142/41 195/151/41
f 203/152/40 195/151/40 196/143/40
f 196/143/39 197/154/39 205/153/39
f 205/155/46 197/156/46 198/146/46
f 206/157/45 198/146/45 199/147/45
f 207/158/44 199/147/44 200/149/44
f 208/159/43 200/149/43 193/141/43
f 209/160/50 201/161/50 202/150/50
f 210/162/49 202/150/49 203/152/49
f 211/163/48 203/152/48 204/164/48
f 212/165/47 204/164/47 205/153/47
f 213/166/54 205/155/54 206/157/54
f 214/167/53 206/157/53 207/158/53
f 207/158/52 208/159/52 216/168/52
f 216/168/51 208/159/51 201/161/51
f 209/160/58 210/162/58 122/57/58
f 122/57/57 210/162/57 211/163/57
f 123/58/56 211/163/56 212/165/56
f 124/60/55 212/165/55 213/169/55
f 125/65/62 213/166/62 214/167/62
f 126/64/61 214/167/61 215/170/61
f 127/67/60 215/170/60 216/168/60
f 128/69/59 216/168/59 209/160/59
f 121/55/15 130/56/15 129/70/15
f 130/56/16 123/58/16 131/59/16
f 131/59/17 124/60/17 132/61/17
f 132/61/18 125/62/18 133/75/18
f 133/63/19 126/64/19 134/66/19
f 134/66/20 127/67/20 135/68/20
f 135/68/21 128/69/21 136/79/21
f 128/69/22 129/70/22 136/79/22
f 137/71/23 130/56/23 138/72/23
f 138/72/24 131/59/24 139/73/24
f 139/73/25 132/61/25 140/74/25
f 140/74/26 133/75/26 141/84/26
f 141/76/27 134/66/27 142/77/27
f 142/77/28 135/68/28 143/78/28
f 143/78/29 136/79/29 144/88/29
f 136/79/30 137/71/30 144/88/30
f 145/80/31 138/72/31 146/81/31
f 146/81/32 139/73/32 147/82/32
f 147/82/33 140/74/33 148/83/33
f 148/83/34 141/84/34 149/92/34
f 149/85/35 142/77/35 150/86/35
f 150/86/36 143/78/36 151/87/36
f 151/87/37 144/88/37 152/89/37
f 152/89/38 137/71/38 145/80/38
f 145/80/39 154/90/39 153/97/39
f 154/90/40 147/82/40 155/100/40
f 147/82/41 156/91/41 155/100/41
f 156/91/42 149/92/42 157/102/42
f 157/93/43 150/86/43 158/94/43
f 158/94/44 151/87/44 159/95/44
f 159/95/45 152/89/45 160/96/45
f 160/96/46 145/80/46 153/97/46
f 153/97/47 162/98/47 161/107/47
f 154/90/48 163/99/48 162/98/48
f 163/99/49 156/91/49 164/101/49
f 164/101/50 157/102/50 165/111/50
f 157/93/51 166/103/51 165/113/51
f 166/103/52 159/95/52 167/104/52
f 167/104/53 160/96/53 168/105/53
f 168/105/54 153/97/54 161/107/54
f 169/106/55 162/98/55 170/108/55
f 170/108/56 163/99/56 171/109/56
f 171/109/57 164/101/57 172/171/57
f 164/101/58 173/110/58 172/171/58
f 173/112/59 166/103/59 174/114/59
f 174/114/60 167/104/60 175/115/60
f 175/115/61 168/105/61 176/116/61
f 176/116/62 161/107/62 169/106/62
f 177/117/18 170/118/18 178/120/18
f 178/120/17 171/121/17 179/122/17
f 179/122/16 172/123/16 180/124/16
f 180/124/15 173/125/15 181/136/15
f 181/126/22 174/127/22 182/138/22
f 174/127/21 183/129/21 182/138/21
f 183/129/20 176/131/20 184/140/20
f 176/131/19 177/117/19 184/140/19
f 185/132/26 178/120/26 186/133/26
f 186/133/25 179/122/25 187/134/25
f 187/134/24 180/124/24 188/135/24
f 188/135/23 181/136/23 189/144/23
f 181/126/30 190/137/30 189/145/30
f 190/137/29 183/129/29 191/139/29
f 191/139/28 184/140/28 192/148/28
f 184/140/27 185/132/27 192/148/27
f 193/141/34 186/133/34 194/142/34
f 194/142/33 187/134/33 195/151/33
f 187/134/32 196/143/32 195/151/32
f 196/143/31 189/144/31 197/154/31
f 189/145/38 198/146/38 197/156/38
f 198/146/37 191/139/37 199/147/37
f 199/147/36 192/148/36 200/149/36
f 200/149/35 185/132/35 193/141/35
f 193/141/42 202/150/42 201/161/42
f 202/150/41 195/151/41 203/152/41
f 203/152/40 196/143/40 204/164/40
f 196/143/39 205/153/39 204/164/39
f 205/155/46 198/146/46 206/157/46
f 206/157/45 199/147/45 207/158/45
f 207/158/44 200/149/44 208/159/44
f 208/159/43 193/141/43 201/161/43
f 209/160/50 202/150/50 210/162/50
f 210/162/49 203/152/49 211/163/49
f 211/163/48 204/164/48 212/165/48
f 212/165/47 205/153/47 213/169/47
f 213/166/54 206/157/54 214/167/54
f 214/167/53 207/158/53 215/170/53
f 207/158/52 216/168/52 215/170/52
f 216/168/51 201/161/51 209/160/51
f 209/160/58 122/57/58 121/55/58
f 122/57/57 211/163/57 123/58/57
f 123/58/56 212/165/56 124/60/56
f 124/60/55 213/169/55 125/62/55
f 125/65/62 214/167/62 126/64/62
f 126/64/61 215/170/61 127/67/61
f 127/67/60 216/168/60 128/69/60
f 128/69/59 209/160/59 121/55/59
